<?xml version="1.0" encoding="UTF-8"?>
<svg id="Capa_1" data-name="Capa 1" xmlns="http://www.w3.org/2000/svg" viewBox="0 0 204 85">
  <defs>
    <style>
      .cls-1 {
        fill: #0071bc;
      }

      .cls-2, .cls-3 {
        fill: #fff;
      }

      .cls-4 {
        fill: none;
        stroke: #fff;
        stroke-miterlimit: 10;
      }

      .cls-3 {
        font-family: RobotoFlex-SemiBold, 'Roboto Flex';
        font-size: 40px;
        font-variation-settings: 'opsz' 14, 'wght' 600, 'GRAD' 0, 'wdth' 100, 'slnt' 0, 'XOPQ' 96, 'YOPQ' 79, 'XTRA' 468, 'YTUC' 712, 'YTLC' 514, 'YTAS' 750, 'YTDE' -203, 'YTFI' 738;
        font-weight: 600;
      }
    </style>
  </defs>
  <rect class="cls-1" width="204" height="85" rx="26.61" ry="26.61"/>
  <g>
    <path class="cls-2" d="M19.77,32.21c-.29.31-1.37.26-1.68.57-.28.27-.27,1.23-.59,1.39-.79.38-.73-1.09-1.1-1.43-.34-.31-1.78-.2-1.73-.85.05-.54,1.41-.45,1.76-.76s.31-1.5.87-1.5c.63,0,.39,1.35,1.06,1.61.27.11,2.05.29,1.4.97Z"/>
    <path class="cls-2" d="M59.23,42.58c.73-.25.64,1.18,1.09,1.49.37.26,1.63.23,1.63.75,0,.66-1.34.53-1.71.83s-.21,1.51-.86,1.51c-.56,0-.51-1.19-.87-1.51s-1.71-.16-1.71-.83c0-.56,1.35-.46,1.71-.75.33-.26.36-1.37.72-1.49Z"/>
    <path class="cls-2" d="M23.16,24.39c-.25.29-1.3.29-1.63.54s-.29,1.33-.64,1.5c-.75.37-.67-1.14-.97-1.44-.32-.32-1.77-.23-1.72-.85.05-.5,1.31-.44,1.67-.79s.26-1.47.82-1.47c.61,0,.5,1.14.82,1.47.29.3,1.62.28,1.73.72.02.11-.02.23-.09.32Z"/>
    <path class="cls-2" d="M20.65,46.39s.22-.21-.04-.2c-.71.41-1.94,2.22-2.68,2.29-1,.09-1.49-.95-.78-1.73,1.06-1.17,2.39-2.3,3.51-3.44,4.13-4.2,8.35-8.39,12.51-12.59.52-.53,1.74-2.27,2.54-1.92l17.94,18.06c.73.8-.09,1.82-1.05,1.6-.41-.09-.97-.88-1.28-1.17-.4-.38-.84-.72-1.23-1.1v14.29h4.97c-1.84-1.44-2.52-3.33-2.37-5.64.03-.49.4-2.65.71-2.93.54-.49,1.49.58,2.06.68,0-.69,1.98-3.68,2.49-3.68,1.15.91,2.05,2.36,2.49,3.76.07.07,1.56-.67,1.82-.75.64-.18.82-.18,1,.49.55,2.05-.02,4.67-1.21,6.4-.47.69-1.01,1.18-1.69,1.67h3.04c.09,0,.41.3.45.42.25.62-.09,1.27-.77,1.32l-24.41-.06-.26-.37c-.19-3.84.27-7.96,0-11.77s-5.39-3.92-6.06-.37l-.08,12.31-.2.2-24.41.06c-.68-.05-1.02-.7-.77-1.32.04-.11.36-.42.45-.42h3.04c-2.23-1.7-3.19-4.28-3-7.07.02-.3.14-1.14.28-1.37.25-.39.84-.12,1.18,0,.25.08,1.46.66,1.54.6.31-.81.7-1.57,1.2-2.28.22-.31.75-1.06,1.02-1.27s.49-.13.71.07c.33.31.86,1.08,1.12,1.48.39.61.72,1.25,1.01,1.92.08.09.14,0,.2-.04,1.25-.69,1.63-1.43,2.11.48.71,2.77.43,5.74-2.08,7.48h4.97v-14.09ZM37.9,37.45c0-1.39-1.12-2.51-2.51-2.51s-2.51,1.12-2.51,2.51,1.12,2.51,2.51,2.51,2.51-1.12,2.51-2.51ZM24.59,49.99v7.42h5.3v-7.42h-5.3ZM46.07,49.99h-5.21v7.42h5.21v-7.42ZM13,51.41c-.14-.1-.36.31-.43.4-.35.5-.56,1.08-.82,1.63l1.13,1.29,1.15-1.3-1.03-2.01ZM58.07,54.64c.09-.41.95-.83.96-1.22,0-.23-.78-1.68-.97-1.88-.05-.06-.07-.16-.18-.13-.29.35-1.12,1.62-1.07,2.01.02.12.92,1.05,1.07,1.15.07.05.08.11.2.08ZM12.21,59.46c.88-2.53-.82-4.99-3.31-5.52.11.58.14,1.16.28,1.74.39,1.58,1.5,3.17,3.04,3.79ZM61.86,53.93c-2.41.56-4.27,3.08-3.19,5.52,2.18-.85,3.19-3.3,3.19-5.52ZM16.31,54.01c-.76.26-1.54.92-2.05,1.54-.07.08-.45.61-.46.65-.05.19.2.88.22,1.17.07.73-.03,1.47-.23,2.17,2.37-.77,3.04-3.28,2.52-5.53ZM56.96,59.54c-.21-1.08-.33-2.16.07-3.22l-.03-.17c-.32-.46-.68-.9-1.11-1.27-.17-.14-1.33-1-1.46-.87-.38,2.28.18,4.65,2.52,5.53Z"/>
    <path class="cls-2" d="M55.68,18.78c-4.26,0-7.71,3.45-7.71,7.71s3.45,7.71,7.71,7.71,7.71-3.45,7.71-7.71-3.45-7.71-7.71-7.71ZM56.92,27.33c-.38,0-.69-.31-.69-.69s.31-.69.69-.69.69.31.69.69-.31.69-.69.69ZM59.43,24.68c-.6,0-1.08-.49-1.08-1.08s.49-1.08,1.08-1.08,1.08.49,1.08,1.08-.49,1.08-1.08,1.08Z"/>
    <path class="cls-2" d="M16.36,26.23c-.29.31-1.37.26-1.68.57-.28.27-.27,1.23-.59,1.39-.79.38-.73-1.09-1.1-1.43-.34-.31-1.78-.2-1.73-.85.05-.54,1.41-.45,1.76-.76s.31-1.5.87-1.5c.63,0,.39,1.35,1.06,1.61.27.11,2.05.29,1.4.97Z"/>
    <path class="cls-2" d="M54.13,38.7c.73-.25.64,1.18,1.09,1.49.37.26,1.63.23,1.63.75,0,.66-1.34.53-1.71.83s-.21,1.51-.86,1.51c-.56,0-.51-1.19-.87-1.51s-1.71-.16-1.71-.83c0-.56,1.35-.46,1.71-.75.33-.26.36-1.37.72-1.49Z"/>
    <path class="cls-4" d="M51.27,23.76s-21.19-2.91,1.77,3.21c22.95,6.12,16.29,1.88,9.96,0l-6.33-1.88-5.39-1.33Z"/>
  </g>
  <text class="cls-3" transform="translate(76.04 58.93)"><tspan x="0" y="0">HOME</tspan></text>
</svg>