<?xml version="1.0" encoding="UTF-8"?>
<svg id="Capa_1" data-name="Capa 1" xmlns="http://www.w3.org/2000/svg" viewBox="0 0 284 85">
  <defs>
    <style>
      .cls-1 {
        letter-spacing: 0em;
      }

      .cls-1, .cls-2 {
        font-family: SegoeUI-Semibold, 'Segoe UI';
        font-size: 40px;
        font-weight: 600;
      }

      .cls-1, .cls-2, .cls-3 {
        fill: #fff;
      }

      .cls-1, .cls-2, .cls-4 {
        isolation: isolate;
      }

      .cls-5 {
        fill: #0071bc;
      }
    </style>
  </defs>
  <rect class="cls-5" width="284" height="85" rx="26.61" ry="26.61"/>
  <g>
    <path class="cls-3" d="M73.48,53.2c8.59.85,12.37,10.93,7.09,17.62-1.87,2.37-4.69,3.91-7.72,4.17h-28.23c-1.39-.19-2.77-.55-4.01-1.21-.72-.38-1.65-1.3-2.23-1.54-.69-.29-2.77-.42-3.71-.62-11.77-2.49-20.88-11.87-22.74-23.82C8.56,26.11,28.18,8.66,49.33,14.95c13.61,4.05,21.94,17.31,20.38,31.4,1.89,1.86,3.17,4.26,3.77,6.84h0ZM66.69,44.1c.4-9.74-4.49-19.16-13.04-23.91-19.11-10.62-41.45,4.84-38.73,26.4,1.38,10.97,9.92,20.05,20.82,21.96l-.71-2.96c-.82-6.82,4.68-12.77,11.55-12.42,1.93-8.63,12.32-13.65,20.1-9.06h.01ZM60.22,45.58c-4.48.04-8.83,3.19-10.23,7.44-.3.9-.34,2.2-.63,2.93-.53,1.36-1.86.61-2.74.5-2.64-.31-5.31.87-6.87,3-3.63,4.97-.72,12.01,5.54,12.44,8.7-.38,17.8.49,26.46,0,10.51-.59,10.54-14.95,1.09-15.52-.66-.04-1.22.31-1.87-.26-.5-.44-.5-1.85-.66-2.56-1.08-4.55-5.37-8.01-10.08-7.97h-.01Z"/>
    <path class="cls-3" d="M26.57,23.77c-1.9,0-3.44,1.54-3.44,3.44s1.54,3.44,3.44,3.44,3.44-1.54,3.44-3.44-1.54-3.44-3.44-3.44ZM26.57,29.88c-1.47,0-2.67-1.19-2.67-2.67s1.19-2.67,2.67-2.67,2.67,1.19,2.67,2.67-1.19,2.67-2.67,2.67Z"/>
    <path class="cls-3" d="M21.13,33.32c-1.9,0-3.44,1.54-3.44,3.44s1.54,3.44,3.44,3.44,3.44-1.54,3.44-3.44-1.54-3.44-3.44-3.44ZM21.13,39.43c-1.47,0-2.67-1.19-2.67-2.67s1.19-2.67,2.67-2.67,2.67,1.19,2.67,2.67-1.19,2.67-2.67,2.67Z"/>
    <path class="cls-3" d="M26.13,44.66c-1.9,0-3.44,1.54-3.44,3.44s1.54,3.44,3.44,3.44,3.44-1.54,3.44-3.44-1.54-3.44-3.44-3.44ZM26.13,50.77c-1.47,0-2.67-1.19-2.67-2.67s1.19-2.67,2.67-2.67,2.67,1.19,2.67,2.67-1.19,2.67-2.67,2.67Z"/>
  </g>
  <g class="cls-4">
    <text class="cls-2" transform="translate(99.94 56.41)"><tspan x="0" y="0">MY </tspan></text>
    <text class="cls-1" transform="translate(171.95 56.41)"><tspan x="0" y="0">R</tspan></text>
    <text class="cls-2" transform="translate(197.69 56.41)"><tspan x="0" y="0">OLE</tspan></text>
  </g>
</svg>