<?xml version="1.0" encoding="UTF-8"?>
<svg id="Capa_1" data-name="Capa 1" xmlns="http://www.w3.org/2000/svg" viewBox="0 0 277 85">
  <defs>
    <style>
      .cls-1 {
        letter-spacing: 0em;
      }

      .cls-1, .cls-2 {
        font-family: SegoeUI-Semibold, 'Segoe UI';
        font-size: 40px;
        font-weight: 600;
      }

      .cls-1, .cls-2, .cls-3 {
        fill: #fff;
      }

      .cls-1, .cls-2, .cls-4 {
        isolation: isolate;
      }

      .cls-5 {
        fill: #0071bc;
      }
    </style>
  </defs>
  <rect class="cls-5" width="277" height="85" rx="26.61" ry="26.61"/>
  <g>
    <path class="cls-3" d="M50.93,58.91l-11.98-2c2.79-1.13,5.33-2.79,6.5-5.68l1.9,1.07,3.58,6.61h0Z"/>
    <circle class="cls-3" cx="74.21" cy="36.95" r="2.3"/>
    <circle class="cls-3" cx="59.93" cy="13.09" r="2.17"/>
    <circle class="cls-3" cx="71.69" cy="23.21" r="1.67"/>
    <circle class="cls-3" cx="67.23" cy="49.27" r="1.31"/>
    <circle class="cls-3" cx="48.73" cy="10.84" r="1.19"/>
    <circle class="cls-3" cx="39.47" cy="12.22" r="1.14"/>
    <path class="cls-3" d="M28.17,17.87c1.41-.21,1.63,1.83.67,2.11-1.69.5-2.12-1.9-.67-2.11Z"/>
    <circle class="cls-3" cx="35.43" cy="52.1" r=".69"/>
    <circle class="cls-3" cx="79.32" cy="43.88" r=".68"/>
    <circle class="cls-3" cx="34.2" cy="20.64" r=".66"/>
    <path class="cls-3" d="M30.04,29.11c-7.82,2.15-8.8,13.45-1.91,17.42l1.71.8c-6.44,2.11-12.5-3.31-12.08-9.88.35-5.55,5.43-9.78,10.98-8.83.38.06,1.06.2,1.31.49h-.01Z"/>
    <path class="cls-3" d="M53.94,53.95c.98,1.08,2.31,1.85,3.61,2.48l1.57.63c-.7.09-1.73.76-2.39.71-.37-.03-1.97-.8-2.35-1.04-1.19-.73-2.54-2.23-3.18-3.48-.12-.24-.46-.95-.47-1.17,0-.2,0-.11.13-.17.47-.23,1.02-.37,1.46-.69.43.98.91,1.93,1.63,2.72h-.01Z"/>
    <circle class="cls-3" cx="39.36" cy="33.88" r=".66"/>
    <g>
      <path class="cls-3" d="M31.12,62.7c.06,0,.65-.35.71-.42.63-.67.16-1.76-.66-1.99l-11.19-.05c-.13-.03-1.53-2.01-1.61-2.2-.05-.13.02-.19.15-.15,4.87,0,9.6-.17,14.42.53,8.55,1.23,16.97,3.28,25.61,4.08,5.75.53,11.59.03,17.35.21l-1.86,2.23-49.9.03c-.34-.05-1.2-.97-1.48-1.28-.24-.27-.58-.65-.71-.98h9.17Z"/>
      <path class="cls-3" d="M71.1,67.51c-.92.89-2.01,1.61-3.08,2.3H30.04c-1.07-.74-2.2-1.46-3.18-2.3h44.24Z"/>
      <path class="cls-3" d="M62.6,72.42l-2.89,1.05c-7.15,2.15-14.44,2.13-21.58-.08l-2.56-.97h27.03Z"/>
      <path class="cls-3" d="M79.39,57.88l-1.33,1.99-.46.36c-5.42-.02-10.86.08-16.27-.1-.7-.02-1.47.06-2.16,0-.18,0-.34,0-.45-.16,2.87-.95,5.83-1.8,8.86-2.1,3.92-.38,7.89.14,11.82,0h-.01Z"/>
    </g>
    <path class="cls-3" d="M59.28,24.81c-3.19-3.51-6.91-4.67-11.57-4.61-.17,0-.45-.07-.56.1,6.18-.22,11.26,5.36,11.68,11.31.01.19.08.42-.21.36.62.1,1.35.66,1.56,1.26.79,2.3-1.47,5.72-3.2,7.14.18.03-.05.29-.09.37-1.82,3.59-4.43,6.86-7.59,9.35,3.03-.62,7.91-5.11,9.83-7.53,4.32-5.46,5.04-12.38.16-17.76h0Z"/>
    <path class="cls-3" d="M47.14,20.31c-6.97.25-12.59,7.4-12.08,14.18.46,6.17,6.92,12.9,12.39,15.25.66.28,1.12.51,1.84.36,2.4-1.41,4.41-3.87,5.97-6.18.36-.53,2.09-3.24,1.96-3.52-.04-.09-.15-.08-.25-.02-1.23,1.01-3.74,2.4-5.37,2.14-1.72-.27-.75-3.76-.34-4.83.99-2.54,4.35-6.18,7.35-5.71l.39.03c-.09-6.07-5.46-12.34-11.85-11.7h0ZM43.74,42.09c-2.5-.98-4.84-3.26-5.78-5.79-.57-1.52-.86-3.99,1.28-4.3,3.44-.5,6.96,3.9,7.67,6.91.71,3,.05,4.43-3.17,3.17h0ZM49.16,47.88c-.38,0-.69-.31-.69-.69s.31-.69.69-.69.69.31.69.69-.31.69-.69.69Z"/>
  </g>
  <g class="cls-4">
    <text class="cls-2" transform="translate(96.23 57.54)"><tspan x="0" y="0">P</tspan></text>
    <text class="cls-1" transform="translate(120.08 57.54)"><tspan x="0" y="0">R</tspan></text>
    <text class="cls-2" transform="translate(145.82 57.54)"><tspan x="0" y="0">OFILE</tspan></text>
  </g>
</svg>