<?xml version="1.0" encoding="UTF-8"?>
<svg id="Capa_1" data-name="Capa 1" xmlns="http://www.w3.org/2000/svg" viewBox="0 0 285 85">
  <defs>
    <style>
      .cls-1 {
        fill: #0071bc;
      }

      .cls-2 {
        font-family: SegoeUI-Semibold, 'Segoe UI';
        font-size: 40px;
        font-weight: 600;
      }

      .cls-2, .cls-3 {
        fill: #fff;
      }

      .cls-2, .cls-4 {
        isolation: isolate;
      }
    </style>
  </defs>
  <rect class="cls-1" width="285" height="85" rx="26.61" ry="26.61"/>
  <g>
    <circle class="cls-3" cx="46.65" cy="22.56" r="1.57"/>
    <circle class="cls-3" cx="46.66" cy="66.63" r="1.57"/>
    <circle class="cls-3" cx="64.47" cy="60.8" r="1.55"/>
    <circle class="cls-3" cx="28.59" cy="28.63" r="1.55"/>
    <circle class="cls-3" cx="64.48" cy="28.63" r="1.55"/>
    <circle class="cls-3" cx="28.6" cy="60.81" r="1.55"/>
    <path class="cls-3" d="M68.21,36.75c1.66,1.67,4.69,5.07,5.67,7.14.52,1.09-.05,1.62-.63,2.5-3.19,4.77-8.3,9.78-13.36,12.51-14.3,7.73-28.71,1.9-38.19-10.03-.71-.9-1.91-2.37-2.43-3.34-.21-.39-.35-.7-.26-1.15.11-.56,1.16-1.95,1.54-2.49,5.28-7.4,13.37-13.34,22.53-14.71,9.47-1.41,18.59,3.02,25.13,9.57h0ZM65.64,50.51c1.81-1.79,3.43-3.76,4.96-5.8v-.16c-5.76-8.24-15.89-15.58-26.44-14.24-8.12,1.03-15.47,6.22-20.4,12.55-.19.24-1.23,1.58-1.24,1.73-.02.21.51.85.66,1.06,6.64,8.91,17.39,15.66,28.9,12.84,5.17-1.27,9.83-4.28,13.56-7.98h0Z"/>
    <path class="cls-3" d="M58.78,44.67c0,6.74-5.47,12.21-12.21,12.21s-12.21-5.47-12.21-12.21,5.47-12.21,12.21-12.21,12.21,5.47,12.21,12.21ZM55.62,44.64c0-5-4.05-9.05-9.05-9.05s-9.05,4.05-9.05,9.05,4.05,9.05,9.05,9.05,9.05-4.05,9.05-9.05Z"/>
    <path class="cls-3" d="M40.73,42.73l.96.65c3.09,1.53,5.65-2.35,3.16-4.68,5.51-1.63,9.95,4.59,6.79,9.38-.59.9-1.51,1.67-2.49,2.13-4.92,2.28-9.98-2.42-8.42-7.47h0Z"/>
  </g>
  <g class="cls-4">
    <text class="cls-2" transform="translate(84 56.88)"><tspan x="0" y="0">DIS</tspan></text>
    <text class="cls-2" transform="translate(147.55 56.88)"><tspan x="0" y="0">C</tspan></text>
    <text class="cls-2" transform="translate(171.89 56.88)"><tspan x="0" y="0">O</tspan></text>
    <text class="cls-2" transform="translate(201.54 56.88)"><tspan x="0" y="0">VER</tspan></text>
  </g>
</svg>